<svg width="1002" height="364" viewBox="0 0 1002 364" fill="none" xmlns="http://www.w3.org/2000/svg">
<path d="M845.008 0L969.424 320.512C974.203 332.8 979.493 341.333 985.296 346.112C991.44 350.549 996.901 352.939 1001.68 353.28V363.52C991.44 362.837 979.323 362.496 965.328 362.496C951.675 362.155 937.851 361.984 923.856 361.984C908.155 361.984 893.307 362.155 879.312 362.496C865.317 362.496 854.224 362.837 846.032 363.52V353.28C863.44 352.597 874.363 349.696 878.8 344.576C883.579 339.115 882.555 327.68 875.728 310.272L788.688 72.192L797.904 58.88L720.08 261.632C712.571 280.405 707.963 295.765 706.256 307.712C704.891 319.659 705.744 328.875 708.816 335.36C712.229 341.845 717.52 346.453 724.688 349.184C732.197 351.573 741.072 352.939 751.312 353.28V363.52C740.048 362.837 729.296 362.496 719.056 362.496C708.816 362.155 698.405 361.984 687.824 361.984C680.315 361.984 673.147 362.155 666.32 362.496C659.835 362.496 654.032 362.837 648.912 363.52V353.28C656.08 351.915 663.419 347.307 670.928 339.456C678.437 331.605 685.776 318.293 692.944 299.52L809.68 0C815.141 0.341329 820.944 0.511993 827.088 0.511993C833.573 0.511993 839.547 0.341329 845.008 0ZM880.848 216.064V226.304H728.272L733.392 216.064H880.848Z" fill="#0F172A"/>
<path d="M681.996 0.511993V10.752C674.487 13.824 666.807 19.968 658.956 29.184C651.105 38.0587 642.401 51.712 632.844 70.144L536.076 261.632H512.012L392.204 39.936C386.06 28.3307 380.428 20.6507 375.308 16.896C370.529 13.1413 366.263 11.264 362.508 11.264V0.511993C371.724 1.536 381.111 2.21867 390.668 2.56C400.567 2.90133 411.319 3.07199 422.924 3.07199C437.943 3.07199 454.156 2.90133 471.564 2.56C488.972 1.87734 504.844 1.19467 519.18 0.511993V11.264C510.647 11.264 502.967 11.9467 496.14 13.312C489.313 14.6773 484.535 17.2373 481.804 20.992C479.073 24.4053 479.756 30.0373 483.852 37.888L564.748 193.536L548.876 214.016L601.612 108.032C614.241 83.456 620.897 64.1707 621.58 50.176C622.604 36.1813 619.191 26.2827 611.34 20.48C603.831 14.336 593.079 11.0933 579.084 10.752V0.511993C590.689 0.853343 601.612 1.19468 611.852 1.53601C622.092 1.87734 632.503 2.048 643.084 2.048C650.593 2.048 657.591 1.87734 664.076 1.53601C670.903 1.19468 676.876 0.853343 681.996 0.511993ZM572.428 180.736V309.248C572.428 321.536 573.281 330.752 574.988 336.896C577.036 343.04 580.791 347.136 586.252 349.184C591.713 351.232 599.905 352.597 610.828 353.28V363.52C601.612 362.837 589.665 362.496 574.988 362.496C560.652 362.155 546.316 361.984 531.98 361.984C515.937 361.984 500.748 362.155 486.412 362.496C472.076 362.496 460.812 362.837 452.62 363.52V353.28C463.543 352.597 471.735 351.232 477.196 349.184C482.657 347.136 486.241 343.04 487.948 336.896C489.996 330.752 491.02 321.536 491.02 309.248V204.288L535.564 236.032L572.428 180.736Z" fill="#C5A059"/>
<path d="M158.208 1.02402C225.451 1.02402 275.456 16.384 308.224 47.104C340.992 77.4827 357.376 121.173 357.376 178.176C357.376 215.381 349.355 247.979 333.312 275.968C317.269 303.616 293.888 325.12 263.168 340.48C232.789 355.84 196.267 363.52 153.6 363.52C148.139 363.52 140.971 363.349 132.096 363.008C123.221 362.667 114.005 362.496 104.448 362.496C94.8907 362.155 86.3573 361.984 78.848 361.984C63.8293 361.984 48.9813 362.155 34.304 362.496C19.968 362.496 8.53333 362.837 0 363.52V353.28C10.9227 352.597 19.1147 351.232 24.576 349.184C30.0373 347.136 33.6213 343.04 35.328 336.896C37.376 330.752 38.4 321.536 38.4 309.248V55.296C38.4 42.6667 37.376 33.4507 35.328 27.648C33.6213 21.504 29.8667 17.408 24.064 15.36C18.6027 12.9707 10.5813 11.6053 0 11.264V1.02402C8.53333 1.36535 19.968 1.87734 34.304 2.56C48.9813 2.90133 63.488 2.90133 77.824 2.56C90.112 2.21867 103.936 1.87734 119.296 1.53601C134.997 1.19468 147.968 1.02402 158.208 1.02402ZM157.696 10.24C141.995 10.24 131.755 13.1413 126.976 18.944C122.197 24.7467 119.808 36.5227 119.808 54.272V310.272C119.808 328.021 122.197 339.797 126.976 345.6C132.096 351.403 142.507 354.304 158.208 354.304C186.88 354.304 209.408 347.648 225.792 334.336C242.517 320.683 254.464 300.885 261.632 274.944C268.8 249.003 272.384 217.429 272.384 180.224C272.384 141.995 268.459 110.421 260.608 85.504C253.099 60.2453 240.981 41.472 224.256 29.184C207.531 16.5547 185.344 10.24 157.696 10.24Z" fill="#0F172A"/>
</svg>
